<svg width="1024" height="1024" viewBox="0 0 1024 1024" fill="none" xmlns="http://www.w3.org/2000/svg">
  <rect width="1024" height="1024" fill="white"/>

  <defs>
    <linearGradient id="leafLight" x1="250" y1="130" x2="720" y2="420" gradientUnits="userSpaceOnUse">
      <stop stop-color="#A7E000"/>
      <stop offset="1" stop-color="#5DAE00"/>
    </linearGradient>
    <linearGradient id="leafDark" x1="340" y1="160" x2="640" y2="520" gradientUnits="userSpaceOnUse">
      <stop stop-color="#52A400"/>
      <stop offset="1" stop-color="#378D00"/>
    </linearGradient>
    <linearGradient id="trunk" x1="512" y1="352" x2="512" y2="730" gradientUnits="userSpaceOnUse">
      <stop stop-color="#9C5A00"/>
      <stop offset="1" stop-color="#7A4300"/>
    </linearGradient>
  </defs>

  <g transform="translate(0 10)">
    <path
      d="M504 322C455 415 448 505 467 576C478 617 462 658 414 716C462 706 501 686 529 654C557 686 596 706 645 716C597 658 581 617 592 576C611 505 604 415 555 322C536 350 520 366 512 366C504 366 488 350 504 322Z"
      fill="url(#trunk)"
    />
    <circle cx="512" cy="304" r="40" fill="#8B4D00"/>

    <g fill="url(#leafLight)">
      <ellipse cx="314" cy="224" rx="54" ry="68" transform="rotate(-24 314 224)"/>
      <ellipse cx="416" cy="126" rx="28" ry="34" transform="rotate(-30 416 126)"/>
      <ellipse cx="516" cy="112" rx="46" ry="58" transform="rotate(8 516 112)"/>
      <ellipse cx="632" cy="122" rx="38" ry="47" transform="rotate(10 632 122)"/>
      <ellipse cx="726" cy="206" rx="56" ry="70" transform="rotate(22 726 206)"/>
      <ellipse cx="718" cy="378" rx="42" ry="53" transform="rotate(18 718 378)"/>
      <ellipse cx="322" cy="410" rx="45" ry="55" transform="rotate(-10 322 410)"/>
      <ellipse cx="430" cy="474" rx="30" ry="38" transform="rotate(-18 430 474)"/>
    </g>

    <g fill="url(#leafDark)">
      <ellipse cx="364" cy="174" rx="40" ry="48" transform="rotate(-10 364 174)"/>
      <ellipse cx="468" cy="224" rx="64" ry="78" transform="rotate(-6 468 224)"/>
      <ellipse cx="594" cy="236" rx="34" ry="44" transform="rotate(6 594 236)"/>
      <ellipse cx="660" cy="330" rx="34" ry="44" transform="rotate(34 660 330)"/>
      <ellipse cx="286" cy="322" rx="34" ry="46" transform="rotate(26 286 322)"/>
      <ellipse cx="388" cy="318" rx="38" ry="54" transform="rotate(-20 388 318)"/>
      <ellipse cx="566" cy="262" rx="46" ry="58" transform="rotate(-8 566 262)"/>
      <ellipse cx="744" cy="274" rx="30" ry="40" transform="rotate(18 744 274)"/>
      <ellipse cx="688" cy="408" rx="34" ry="42" transform="rotate(-24 688 408)"/>
    </g>

    <g fill="#4CA600">
      <circle cx="360" cy="170" r="28"/>
      <circle cx="696" cy="116" r="30"/>
      <circle cx="282" cy="160" r="34"/>
      <circle cx="554" cy="300" r="42"/>
    </g>

    <g stroke="white" stroke-linecap="round">
      <path d="M292 266C324 240 352 212 370 184" stroke-width="10"/>
      <path d="M454 286C484 250 514 212 544 170" stroke-width="12"/>
      <path d="M516 162C504 198 494 232 492 264" stroke-width="12"/>
      <path d="M626 276C626 244 622 214 614 184" stroke-width="10"/>
      <path d="M710 262C732 232 748 206 760 176" stroke-width="10"/>
      <path d="M344 408C376 392 404 386 430 388" stroke-width="10"/>
      <path d="M720 402C736 376 748 348 756 322" stroke-width="10"/>
      <path d="M400 364C414 334 426 306 432 280" stroke-width="10"/>
    </g>
  </g>

  <text
    x="512"
    y="810"
    text-anchor="middle"
    fill="#8B4D00"
    stroke="#6C3B00"
    stroke-width="2"
    font-family="Trebuchet MS, Arial, sans-serif"
    font-size="92"
    font-weight="700"
    letter-spacing="10"
  >
    QHSSE CONSULTANT
  </text>
  <text
    x="512"
    y="906"
    text-anchor="middle"
    fill="#8B4D00"
    stroke="#6C3B00"
    stroke-width="1.4"
    font-family="Trebuchet MS, Arial, sans-serif"
    font-size="68"
    font-weight="700"
    letter-spacing="16"
  >
    SINCE 2022
  </text>
</svg>
